<?xml version="1.0" standalone="no"?>
<!DOCTYPE svg PUBLIC "-//W3C//DTD SVG 20010904//EN"
 "http://www.w3.org/TR/2001/REC-SVG-20010904/DTD/svg10.dtd">
<svg version="1.0" xmlns="http://www.w3.org/2000/svg"
 width="1200.000000pt" height="1200.000000pt" viewBox="0 0 1200.000000 1200.000000"
 preserveAspectRatio="xMidYMid meet">

<g transform="translate(0.000000,1200.000000) scale(0.100000,-0.100000)"
fill="#000000" stroke="none">
<path d="M8910 11040 l0 -90 920 0 920 0 0 -90 0 -90 470 0 470 0 0 90 0 90
90 0 90 0 0 90 0 90 -1480 0 -1480 0 0 -90z"/>
<path d="M3060 11055 l0 -65 1560 0 1560 0 0 65 0 65 -1560 0 -1560 0 0 -65z"/>
<path d="M630 9890 l0 -70 1905 0 1905 0 0 70 0 70 -1905 0 -1905 0 0 -70z"/>
<path d="M3990 9351 c0 -32 111 -38 132 -7 5 7 8 7 8 -1 0 -10 27 -13 101 -13
l101 0 -6 -35 c-7 -35 -6 -35 28 -35 41 0 41 1 50 63 l7 47 -210 0 c-199 0
-211 -1 -211 -19z"/>
<path d="M5052 9348 c2 -15 11 -24 25 -26 12 -2 24 -11 26 -20 4 -16 5 -16 6
0 1 21 44 25 166 16 86 -7 91 -9 117 -40 30 -36 36 -68 14 -68 -14 0 -18 -18
-32 -140 -4 -32 -13 -60 -22 -67 -38 -30 3 -10 48 24 49 36 49 37 56 106 5 54
11 71 24 74 12 3 19 17 22 41 4 28 -2 44 -27 76 l-31 41 -198 3 -197 2 3 -22z"/>
<path d="M6152 9348 c3 -22 7 -23 108 -25 178 -3 205 -9 240 -51 34 -42 38
-62 12 -62 -16 0 -20 -13 -28 -80 l-9 -81 34 3 c38 3 42 11 56 111 4 29 11 47
19 47 8 0 17 16 20 36 7 37 4 45 -43 97 l-25 27 -194 0 -193 0 3 -22z"/>
<path d="M7240 9350 c0 -15 7 -20 29 -20 20 0 31 -6 34 -17 4 -17 5 -17 6 0 1
15 14 17 134 17 l132 -1 33 -44 c34 -47 41 -75 18 -75 -20 0 -22 -6 -31 -73
l-7 -58 39 3 c24 2 39 8 40 18 1 8 5 36 8 63 4 29 11 47 19 47 14 0 26 30 26
65 0 11 -14 37 -31 58 l-30 37 -210 0 c-201 -1 -209 -2 -209 -20z"/>
<path d="M8367 9350 c-5 -19 0 -20 64 -20 62 0 69 2 69 20 0 18 -7 20 -64 20
-55 0 -64 -3 -69 -20z"/>
<path d="M8510 9352 c0 -15 14 -20 89 -31 84 -12 91 -15 115 -46 29 -38 34
-65 11 -65 -8 0 -15 -6 -15 -12 0 -7 -3 -23 -6 -35 -6 -21 -3 -23 35 -23 40 0
41 1 41 35 0 28 4 35 20 35 17 0 20 7 20 41 0 31 -8 51 -31 80 l-31 39 -124 0
c-113 0 -124 -2 -124 -18z"/>
<path d="M5790 9281 c0 -4 28 -11 61 -15 88 -9 99 -8 99 9 0 12 -16 15 -80 15
-44 0 -80 -4 -80 -9z"/>
<path d="M4680 9240 l-155 -6 178 -2 c113 -1 177 2 177 8 0 6 -10 9 -22 8 -13
-1 -93 -5 -178 -8z"/>
<path d="M7020 9240 c20 -13 60 -13 60 0 0 6 -17 10 -37 10 -28 0 -34 -3 -23
-10z"/>
<path d="M3783 9233 c9 -2 23 -2 30 0 6 3 -1 5 -18 5 -16 0 -22 -2 -12 -5z"/>
<path d="M4573 9213 c59 -2 154 -2 210 0 56 1 8 3 -108 3 -115 0 -161 -2 -102
-3z"/>
<path d="M7255 9120 c5 -41 4 -60 -4 -60 -6 0 -11 -7 -11 -15 0 -10 11 -15 35
-15 38 0 39 1 50 98 l6 52 -42 0 -41 0 7 -60z"/>
<path d="M5056 9158 c-3 -7 -7 -32 -10 -55 l-6 -43 60 0 c57 0 60 1 60 25 0
18 -5 25 -18 25 -15 0 -18 6 -14 30 4 29 3 30 -32 30 -21 0 -38 -5 -40 -12z"/>
<path d="M6156 9148 c-3 -13 -6 -38 -6 -55 l0 -33 55 0 c30 0 55 4 55 9 0 5 3
16 6 25 4 12 0 16 -15 16 -17 0 -21 6 -21 30 0 27 -3 30 -34 30 -26 0 -35 -5
-40 -22z"/>
<path d="M8370 9155 c0 -10 10 -15 29 -15 16 0 43 -3 60 -6 20 -4 31 -3 31 5
0 6 -9 11 -20 11 -11 0 -20 5 -20 10 0 6 -18 10 -40 10 -29 0 -40 -4 -40 -15z"/>
<path d="M8060 9150 c0 -5 23 -10 50 -10 28 0 50 5 50 10 0 6 -22 10 -50 10
-27 0 -50 -4 -50 -10z"/>
<path d="M3990 9120 c0 -27 3 -30 34 -30 24 0 36 5 39 18 4 16 5 16 6 0 1 -16
12 -18 86 -18 l85 0 0 -35 c0 -32 2 -35 29 -35 36 0 39 5 47 63 l6 45 -43 6
c-24 3 -99 7 -166 10 l-123 6 0 -30z"/>
<path d="M8367 9103 c-20 -19 -5 -31 33 -26 26 4 40 2 40 -6 0 -6 9 -11 20
-11 15 0 20 7 20 25 0 24 -3 25 -53 25 -30 0 -57 -3 -60 -7z"/>
<path d="M8690 9040 c0 -11 -10 -28 -21 -38 -12 -9 -33 -26 -47 -38 l-26 -21
18 -48 c15 -37 16 -49 6 -55 -9 -6 -10 -16 -3 -36 9 -26 15 -29 58 -32 l47 -3
-6 34 c-4 22 -2 37 4 39 8 2 3 27 -14 72 -14 38 -26 72 -26 76 0 5 19 22 42
39 l42 31 -37 0 c-30 0 -37 -4 -37 -20z"/>
<path d="M5908 9033 c7 -3 16 -2 19 1 4 3 -2 6 -13 5 -11 0 -14 -3 -6 -6z"/>
<path d="M7333 9023 c9 -2 23 -2 30 0 6 3 -1 5 -18 5 -16 0 -22 -2 -12 -5z"/>
<path d="M5900 9000 c0 -5 5 -10 10 -10 6 0 10 5 10 10 0 6 -4 10 -10 10 -5 0
-10 -4 -10 -10z"/>
<path d="M6423 8979 c-24 -17 -43 -32 -43 -34 0 -2 9 -27 20 -55 17 -42 17
-50 5 -50 -19 0 -19 -4 1 -41 14 -27 19 -30 57 -27 43 3 45 6 32 46 -4 16 -2
22 8 22 12 0 9 16 -14 77 -15 42 -26 80 -23 85 8 12 3 10 -43 -23z"/>
<path d="M6823 9003 c-29 -2 -53 -8 -53 -14 0 -5 8 -9 18 -10 14 0 14 -2 -3
-9 -13 -5 27 -9 108 -9 l127 -1 0 25 c0 25 -1 25 -72 23 -40 -1 -97 -3 -125
-5z"/>
<path d="M7248 9003 c12 -2 32 -2 45 0 12 2 2 4 -23 4 -25 0 -35 -2 -22 -4z"/>
<path d="M7577 8988 c-3 -13 -9 -51 -13 -85 -5 -48 -10 -62 -25 -66 -13 -3
-19 -14 -19 -32 l0 -26 40 22 c22 13 40 26 40 31 0 4 6 8 14 8 15 0 21 21 32
113 l6 57 -35 0 c-28 0 -36 -4 -40 -22z"/>
<path d="M4670 8990 c0 -5 9 -10 20 -10 11 0 20 5 20 10 0 6 -9 10 -20 10 -11
0 -20 -4 -20 -10z"/>
<path d="M7230 8970 c0 -12 7 -20 18 -21 14 0 14 -2 -3 -9 -17 -7 -17 -9 -2
-9 26 -1 24 -51 -3 -51 -13 0 -20 -7 -20 -20 0 -18 7 -20 59 -20 44 0 60 4 65
16 10 27 7 34 -19 34 -22 0 -25 4 -25 35 0 32 2 35 30 35 20 0 30 5 30 15 0
12 -14 15 -65 15 -58 0 -65 -2 -65 -20z"/>
<path d="M5900 8970 c0 -5 5 -10 10 -10 6 0 10 5 10 10 0 6 -4 10 -10 10 -5 0
-10 -4 -10 -10z"/>
<path d="M5318 8963 c12 -2 30 -2 40 0 9 3 -1 5 -23 4 -22 0 -30 -2 -17 -4z"/>
<path d="M4715 8950 l50 -7 -47 -1 c-28 -1 -48 -7 -48 -13 0 -7 9 -9 23 -5 12
3 43 6 70 6 35 0 47 4 47 15 0 12 -14 15 -72 13 -71 -1 -72 -1 -23 -8z"/>
<path d="M5280 8940 c0 -5 23 -10 50 -10 28 0 50 5 50 10 0 6 -22 10 -50 10
-27 0 -50 -4 -50 -10z"/>
<path d="M3967 8933 c-4 -3 -7 -24 -7 -45 l0 -38 73 -2 c39 -2 106 -2 147 -1
41 1 68 -1 59 -3 -15 -4 -28 -32 -29 -56 0 -5 18 -8 40 -8 37 0 40 2 40 29 0
20 6 30 20 34 14 4 20 14 20 33 l0 27 -145 -6 -145 -7 0 25 c0 22 -4 25 -33
25 -19 0 -37 -3 -40 -7z"/>
<path d="M5313 8913 c15 -2 39 -2 55 0 15 2 2 4 -28 4 -30 0 -43 -2 -27 -4z"/>
<path d="M6120 8880 c0 -23 -5 -33 -20 -37 -15 -4 -20 -14 -20 -39 0 -32 2
-34 34 -34 31 0 34 3 40 34 4 19 12 36 18 38 20 7 -6 63 -30 66 -19 3 -22 -1
-22 -28z"/>
<path d="M8348 8903 c6 -2 18 -2 25 0 6 3 1 5 -13 5 -14 0 -19 -2 -12 -5z"/>
<path d="M5323 8883 c15 -2 39 -2 55 0 15 2 2 4 -28 4 -30 0 -43 -2 -27 -4z"/>
<path d="M8337 8883 c-4 -3 -7 -15 -7 -25 0 -10 -6 -18 -14 -18 -7 0 -16 -10
-20 -22 -11 -44 -8 -49 32 -46 34 3 37 6 40 36 2 20 9 32 18 32 17 0 17 5 4
31 -10 19 -40 26 -53 12z"/>
<path d="M5028 8873 c7 -3 16 -2 19 1 4 3 -2 6 -13 5 -11 0 -14 -3 -6 -6z"/>
<path d="M5310 8856 c0 -8 -5 -16 -10 -18 -7 -2 -7 -14 1 -36 10 -29 15 -32
53 -32 52 0 58 5 43 38 -9 20 -9 26 1 30 6 2 12 10 12 18 0 10 -14 14 -50 14
-36 0 -50 -4 -50 -14z"/>
<path d="M5010 8852 c0 -4 16 -6 35 -4 19 2 35 6 35 8 0 2 -16 4 -35 4 -19 0
-35 -4 -35 -8z"/>
<path d="M4998 8823 c12 -2 30 -2 40 0 9 3 -1 5 -23 4 -22 0 -30 -2 -17 -4z"/>
<path d="M4977 8793 c-16 -16 -4 -24 30 -21 48 4 57 28 11 28 -19 0 -38 -3
-41 -7z"/>
<path d="M210 8410 l0 -70 1090 0 1090 0 0 70 0 70 -1090 0 -1090 0 0 -70z"/>
<path d="M8410 8355 l0 -105 190 0 190 0 0 -60 0 -60 205 0 205 0 0 120 0 120
-120 0 -120 0 0 45 0 45 -275 0 -275 0 0 -105z"/>
<path d="M3336 7935 c-9 -13 -16 -28 -16 -32 0 -5 26 -21 58 -36 49 -24 69
-27 147 -26 l90 0 -124 60 c-68 32 -127 59 -131 59 -4 0 -15 -11 -24 -25z"/>
<path d="M9250 7928 c-18 -31 -19 -33 -2 -40 9 -3 58 -7 107 -7 l90 0 -75 39
c-41 21 -81 39 -88 40 -7 0 -21 -15 -32 -32z"/>
<path d="M5670 7931 c0 -5 -3 -16 -6 -25 -6 -14 27 -16 320 -16 283 0 326 -2
326 -15 0 -10 10 -15 28 -15 21 0 32 7 40 25 26 58 43 55 -348 55 -212 0 -360
-4 -360 -9z"/>
<path d="M6450 7914 c-6 -14 -10 -27 -10 -30 0 -2 132 -4 293 -4 162 0 408 -3
548 -7 l255 -6 109 -154 c59 -85 114 -157 120 -159 7 -3 33 -4 59 -2 l46 3
-126 182 -127 181 -151 6 c-83 3 -344 8 -579 10 l-428 5 -9 -25z"/>
<path d="M8808 7863 c57 -2 147 -2 200 0 53 1 7 3 -103 3 -110 0 -154 -2 -97
-3z"/>
<path d="M9350 7840 c49 -26 65 -29 148 -30 85 0 92 -1 92 -20 0 -17 -7 -20
-42 -21 l-43 0 99 -50 c98 -48 101 -49 190 -48 l91 1 -191 92 -190 93 -105 6
-104 7 55 -30z"/>
<path d="M3028 7843 c29 -2 74 -2 100 0 26 2 2 3 -53 3 -55 0 -76 -1 -47 -3z"/>
<path d="M8795 7840 c-4 -6 45 -10 139 -10 86 0 147 4 151 10 4 6 -45 10 -139
10 -86 0 -147 -4 -151 -10z"/>
<path d="M3065 7820 c-4 -6 11 -10 39 -10 25 0 48 5 51 10 4 6 -11 10 -39 10
-25 0 -48 -4 -51 -10z"/>
<path d="M3508 7823 c29 -2 74 -2 100 0 26 2 2 3 -53 3 -55 0 -76 -1 -47 -3z"/>
<path d="M2998 7793 c29 -2 74 -2 100 0 26 2 2 3 -53 3 -55 0 -76 -1 -47 -3z"/>
<path d="M8672 7793 c59 -2 158 -2 220 0 62 1 14 3 -107 3 -121 0 -172 -2
-113 -3z"/>
<path d="M9463 7793 c15 -2 37 -2 50 0 12 2 0 4 -28 4 -27 0 -38 -2 -22 -4z"/>
<path d="M5163 7783 c20 -2 54 -2 75 0 20 2 3 4 -38 4 -41 0 -58 -2 -37 -4z"/>
<path d="M2958 7773 c12 -2 32 -2 45 0 12 2 2 4 -23 4 -25 0 -35 -2 -22 -4z"/>
<path d="M3610 7755 c38 -21 59 -24 140 -24 l95 0 -45 24 c-38 21 -59 24 -140
24 l-95 0 45 -24z"/>
<path d="M8735 7740 l-110 -6 140 -1 c77 0 169 3 205 7 63 7 62 7 -30 6 -52 0
-144 -3 -205 -6z"/>
<path d="M3033 7723 c15 -2 37 -2 50 0 12 2 0 4 -28 4 -27 0 -38 -2 -22 -4z"/>
<path d="M5148 7713 c23 -2 61 -2 85 0 23 2 4 4 -43 4 -47 0 -66 -2 -42 -4z"/>
<path d="M3780 7676 c17 -11 51 -15 110 -14 l85 1 -60 8 c-33 5 -82 11 -110
14 -48 5 -49 5 -25 -9z"/>
<path d="M5148 7683 c23 -2 59 -2 80 0 20 2 1 4 -43 4 -44 0 -61 -2 -37 -4z"/>
<path d="M5413 7673 c9 -2 25 -2 35 0 9 3 1 5 -18 5 -19 0 -27 -2 -17 -5z"/>
<path d="M3868 7643 c17 -2 47 -2 65 0 17 2 3 4 -33 4 -36 0 -50 -2 -32 -4z"/>
<path d="M3890 7620 c0 -5 11 -10 24 -10 14 0 28 5 31 10 4 6 -7 10 -24 10
-17 0 -31 -4 -31 -10z"/>
<path d="M3893 7593 c9 -2 23 -2 30 0 6 3 -1 5 -18 5 -16 0 -22 -2 -12 -5z"/>
<path d="M3865 7570 c-3 -6 5 -10 19 -10 14 0 28 5 31 10 3 6 -5 10 -19 10
-14 0 -28 -4 -31 -10z"/>
<path d="M9766 7548 c-8 -13 -53 -87 -100 -165 -80 -134 -84 -143 -61 -143 23
0 42 26 204 293 l23 37 -26 0 c-16 0 -31 -9 -40 -22z"/>
<path d="M3827 7513 c-49 -78 -51 -83 -23 -83 17 0 31 11 47 38 13 20 29 47
37 60 13 21 13 22 -12 22 -19 0 -32 -10 -49 -37z"/>
<path d="M8823 7513 c15 -2 37 -2 50 0 12 2 0 4 -28 4 -27 0 -38 -2 -22 -4z"/>
<path d="M5288 7503 c23 -2 61 -2 85 0 23 2 4 4 -43 4 -47 0 -66 -2 -42 -4z"/>
<path d="M8813 7493 c15 -2 37 -2 50 0 12 2 0 4 -28 4 -27 0 -38 -2 -22 -4z"/>
<path d="M5253 7463 c9 -2 25 -2 35 0 9 3 1 5 -18 5 -19 0 -27 -2 -17 -5z"/>
<path d="M7849 7423 c6 -13 -9 -81 -55 -237 -35 -121 -60 -224 -57 -229 3 -5
-1 -13 -8 -18 -10 -6 -11 -9 -1 -9 6 0 12 -4 12 -10 0 -5 -7 -10 -15 -10 -8 0
-15 -4 -15 -10 0 -5 7 -10 15 -10 24 0 17 -20 -7 -21 -21 -1 -21 -2 -3 -6 11
-3 23 -10 27 -16 4 -6 10 -8 14 -4 6 6 173 573 174 590 0 4 -20 7 -45 7 -40 0
-45 -2 -36 -17z"/>
<path d="M2610 7320 c99 -11 238 -11 245 0 4 7 -49 9 -152 8 -125 -1 -144 -3
-93 -8z"/>
<path d="M4290 7295 c0 -23 3 -24 78 -27 67 -3 77 -5 74 -20 -2 -14 4 -18 31
-18 32 0 35 3 45 40 5 21 7 42 4 45 -3 3 -56 5 -119 5 l-113 0 0 -25z"/>
<path d="M9718 7295 l-5 -25 323 0 c284 0 324 -2 324 -15 0 -9 -13 -61 -30
-117 -16 -55 -30 -105 -30 -110 0 -5 14 -8 31 -6 31 3 32 4 70 133 21 72 39
138 39 148 0 16 -24 17 -359 17 l-359 0 -4 -25z"/>
<path d="M2698 7293 c29 -2 74 -2 100 0 26 2 2 3 -53 3 -55 0 -76 -1 -47 -3z"/>
<path d="M2550 7270 c0 -6 51 -10 134 -10 79 0 137 4 141 10 4 6 -43 10 -134
10 -87 0 -141 -4 -141 -10z"/>
<path d="M3675 7260 c-3 -6 5 -10 19 -10 14 0 28 5 31 10 3 6 -5 10 -19 10
-14 0 -28 -4 -31 -10z"/>
<path d="M5143 7243 c37 -2 97 -2 135 0 37 2 6 3 -68 3 -74 0 -105 -1 -67 -3z"/>
<path d="M2733 7223 c15 -2 37 -2 50 0 12 2 0 4 -28 4 -27 0 -38 -2 -22 -4z"/>
<path d="M2423 7213 c15 -2 37 -2 50 0 12 2 0 4 -28 4 -27 0 -38 -2 -22 -4z"/>
<path d="M4448 7203 c12 -2 30 -2 40 0 9 3 -1 5 -23 4 -22 0 -30 -2 -17 -4z"/>
<path d="M5283 7203 c9 -2 25 -2 35 0 9 3 1 5 -18 5 -19 0 -27 -2 -17 -5z"/>
<path d="M10690 7145 l0 -55 545 0 545 0 0 55 0 55 -545 0 -545 0 0 -55z"/>
<path d="M5010 7180 c-154 -6 -153 -6 78 -8 149 -1 232 2 232 8 0 10 -33 10
-310 0z"/>
<path d="M4420 7170 c0 -5 16 -10 35 -10 19 0 35 5 35 10 0 6 -16 10 -35 10
-19 0 -35 -4 -35 -10z"/>
<path d="M6110 7150 c0 -5 16 -10 35 -10 19 0 35 5 35 10 0 6 -16 10 -35 10
-19 0 -35 -4 -35 -10z"/>
<path d="M9496 7100 c-20 -34 -36 -64 -36 -66 0 -3 10 -4 22 -2 17 2 26 16 40
63 9 32 16 61 14 62 -2 2 -20 -24 -40 -57z"/>
<path d="M2483 7143 c15 -2 37 -2 50 0 12 2 0 4 -28 4 -27 0 -38 -2 -22 -4z"/>
<path d="M4410 7140 c0 -5 16 -10 35 -10 19 0 35 5 35 10 0 6 -16 10 -35 10
-19 0 -35 -4 -35 -10z"/>
<path d="M5088 7133 c23 -2 61 -2 85 0 23 2 4 4 -43 4 -47 0 -66 -2 -42 -4z"/>
<path d="M2448 7123 c57 -2 147 -2 200 0 53 1 7 3 -103 3 -110 0 -154 -2 -97
-3z"/>
<path d="M6100 7120 c0 -5 16 -10 35 -10 19 0 35 5 35 10 0 6 -16 10 -35 10
-19 0 -35 -4 -35 -10z"/>
<path d="M4400 7100 c0 -5 16 -10 35 -10 19 0 35 5 35 10 0 6 -16 10 -35 10
-19 0 -35 -4 -35 -10z"/>
<path d="M2553 7093 c15 -2 37 -2 50 0 12 2 0 4 -28 4 -27 0 -38 -2 -22 -4z"/>
<path d="M6090 7074 c0 -11 8 -14 32 -12 46 4 49 28 4 28 -26 0 -36 -4 -36
-16z"/>
<path d="M2493 7073 c43 -2 110 -2 150 0 40 1 5 3 -78 3 -82 0 -115 -2 -72 -3z"/>
<path d="M4390 7070 c0 -5 16 -10 35 -10 19 0 35 5 35 10 0 6 -16 10 -35 10
-19 0 -35 -4 -35 -10z"/>
<path d="M3568 7063 c6 -2 18 -2 25 0 6 3 1 5 -13 5 -14 0 -19 -2 -12 -5z"/>
<path d="M4843 7063 c9 -2 25 -2 35 0 9 3 1 5 -18 5 -19 0 -27 -2 -17 -5z"/>
<path d="M6054 6945 c-25 -92 -31 -105 -50 -105 -18 0 -24 -10 -38 -63 -8 -35
-18 -71 -22 -80 -5 -14 0 -17 29 -17 30 0 36 4 42 28 25 103 37 132 55 132 15
0 24 16 40 73 12 39 25 85 31 101 5 16 9 31 9 32 0 2 -15 4 -34 4 l-34 0 -28
-105z"/>
<path d="M3553 7033 c9 -2 23 -2 30 0 6 3 -1 5 -18 5 -16 0 -22 -2 -12 -5z"/>
<path d="M4355 6940 c-24 -85 -31 -100 -49 -100 -19 0 -27 -20 -70 -173 -27
-94 -51 -178 -54 -184 -3 -9 7 -13 29 -13 l34 0 38 134 c70 244 67 235 89 238
17 2 26 21 49 98 16 52 29 96 29 98 0 1 -15 2 -33 2 l-34 0 -28 -100z"/>
<path d="M8308 7033 c57 -2 147 -2 200 0 53 1 7 3 -103 3 -110 0 -154 -2 -97
-3z"/>
<path d="M8298 7013 c57 -2 147 -2 200 0 53 1 7 3 -103 3 -110 0 -154 -2 -97
-3z"/>
<path d="M9453 7003 c9 -2 23 -2 30 0 6 3 -1 5 -18 5 -16 0 -22 -2 -12 -5z"/>
<path d="M6798 6993 c29 -2 74 -2 100 0 26 2 2 3 -53 3 -55 0 -76 -1 -47 -3z"/>
<path d="M8473 6987 c64 -7 92 -6 100 2 8 8 -15 11 -88 10 l-100 -2 88 -10z"/>
<path d="M10267 6923 c-18 -61 -28 -79 -44 -81 -16 -2 -26 -25 -56 -128 -21
-68 -37 -129 -37 -134 0 -6 13 -10 30 -10 31 0 34 6 93 215 10 37 19 51 35 53
16 2 25 18 41 72 27 87 27 90 -9 90 -28 0 -30 -4 -53 -77z"/>
<path d="M3468 6915 c-32 -56 -48 -75 -64 -75 -17 0 -38 -28 -98 -127 l-76
-128 28 -6 c15 -4 36 -7 47 -7 17 0 17 1 -3 6 -21 7 -20 10 38 105 33 53 61
103 63 109 4 20 36 48 55 48 11 0 32 24 57 67 52 86 51 83 22 83 -21 0 -33
-13 -69 -75z"/>
<path d="M9443 6983 c9 -2 23 -2 30 0 6 3 -1 5 -18 5 -16 0 -22 -2 -12 -5z"/>
<path d="M6751 6966 c11 -9 179 -15 179 -6 0 6 -37 10 -92 10 -50 0 -89 -2
-87 -4z"/>
<path d="M8493 6963 c15 -2 37 -2 50 0 12 2 0 4 -28 4 -27 0 -38 -2 -22 -4z"/>
<path d="M9415 6960 c-8 -13 35 -13 55 0 11 7 7 10 -17 10 -17 0 -35 -4 -38
-10z"/>
<path d="M9401 6936 c11 -9 69 -14 69 -6 0 6 -16 10 -37 10 -20 0 -34 -2 -32
-4z"/>
<path d="M6793 6923 c26 -2 67 -2 90 0 23 2 2 3 -48 3 -49 0 -68 -1 -42 -3z"/>
<path d="M8163 6913 c15 -2 37 -2 50 0 12 2 0 4 -28 4 -27 0 -38 -2 -22 -4z"/>
<path d="M9386 6911 c-7 -10 63 -23 77 -14 13 8 -18 21 -50 22 -12 1 -24 -3
-27 -8z"/>
<path d="M6793 6893 c26 -2 67 -2 90 0 23 2 2 3 -48 3 -49 0 -68 -1 -42 -3z"/>
<path d="M8303 6893 c43 -2 110 -2 150 0 40 1 5 3 -78 3 -82 0 -115 -2 -72 -3z"/>
<path d="M9388 6883 c6 -2 18 -2 25 0 6 3 1 5 -13 5 -14 0 -19 -2 -12 -5z"/>
<path d="M8433 6863 c15 -2 37 -2 50 0 12 2 0 4 -28 4 -27 0 -38 -2 -22 -4z"/>
<path d="M9380 6860 c0 -5 16 -10 35 -10 19 0 35 5 35 10 0 6 -16 10 -35 10
-19 0 -35 -4 -35 -10z"/>
<path d="M8423 6843 c15 -2 37 -2 50 0 12 2 0 4 -28 4 -27 0 -38 -2 -22 -4z"/>
<path d="M7650 6831 c0 -5 12 -12 28 -14 25 -4 25 -4 -5 -6 -44 -2 -42 -21 2
-21 19 0 35 4 35 9 0 5 3 16 6 25 5 13 -1 16 -30 16 -20 0 -36 -4 -36 -9z"/>
<path d="M9343 6828 c35 -8 52 -7 60 1 8 8 -5 11 -48 10 l-60 -1 48 -10z"/>
<path d="M9293 6803 c9 -2 23 -2 30 0 6 3 -1 5 -18 5 -16 0 -22 -2 -12 -5z"/>
<path d="M7630 6760 c0 -5 16 -10 35 -10 19 0 35 5 35 10 0 6 -16 10 -35 10
-19 0 -35 -4 -35 -10z"/>
<path d="M9105 6513 c-74 -124 -133 -228 -130 -231 2 -3 -3 -11 -13 -18 -16
-12 -16 -13 3 -15 17 -1 16 -2 -5 -9 l-25 -8 25 -1 c23 -1 40 23 155 216 72
119 140 234 153 255 l23 38 -25 0 c-22 0 -41 -27 -161 -227z"/>
<path d="M6758 6683 c6 -2 18 -2 25 0 6 3 1 5 -13 5 -14 0 -19 -2 -12 -5z"/>
<path d="M5103 6663 c9 -2 23 -2 30 0 6 3 -1 5 -18 5 -16 0 -22 -2 -12 -5z"/>
<path d="M5930 6650 c0 -5 16 -10 35 -10 19 0 35 5 35 10 0 6 -16 10 -35 10
-19 0 -35 -4 -35 -10z"/>
<path d="M6490 6650 l-155 -6 228 -2 c146 -1 227 2 227 8 0 10 -24 10 -300 0z"/>
<path d="M4925 6640 c91 -12 205 -11 205 0 0 6 -50 9 -132 9 -110 -2 -123 -3
-73 -9z"/>
<path d="M7551 6485 c-22 -79 -41 -147 -41 -150 0 -4 14 -5 32 -3 l32 3 43
145 c23 80 42 146 43 148 0 1 -15 2 -34 2 l-33 0 -42 -145z"/>
<path d="M5920 6610 c0 -5 16 -10 35 -10 19 0 35 5 35 10 0 6 -16 10 -35 10
-19 0 -35 -4 -35 -10z"/>
<path d="M6393 6603 c37 -2 97 -2 135 0 37 2 6 3 -68 3 -74 0 -105 -1 -67 -3z"/>
<path d="M6668 6603 c23 -2 61 -2 85 0 23 2 4 4 -43 4 -47 0 -66 -2 -42 -4z"/>
<path d="M4898 6593 c23 -2 61 -2 85 0 23 2 4 4 -43 4 -47 0 -66 -2 -42 -4z"/>
<path d="M5855 6378 c-32 -117 -60 -219 -63 -225 -3 -9 7 -13 30 -13 l34 0 59
213 c32 116 60 218 63 225 3 8 -7 12 -30 12 l-34 0 -59 -212z"/>
<path d="M2218 6563 c29 -2 74 -2 100 0 26 2 2 3 -53 3 -55 0 -76 -1 -47 -3z"/>
<path d="M3233 6563 c9 -2 23 -2 30 0 6 3 -1 5 -18 5 -16 0 -22 -2 -12 -5z"/>
<path d="M2133 6543 c43 -2 110 -2 150 0 40 1 5 3 -78 3 -82 0 -115 -2 -72 -3z"/>
<path d="M3238 6543 c18 -2 45 -2 60 0 15 2 0 4 -33 4 -33 0 -45 -2 -27 -4z"/>
<path d="M2245 6520 c-4 -6 11 -10 39 -10 25 0 48 5 51 10 4 6 -11 10 -39 10
-25 0 -48 -4 -51 -10z"/>
<path d="M3215 6510 c31 -8 112 -13 104 -6 -2 2 -33 6 -69 9 -41 3 -54 2 -35
-3z"/>
<path d="M2253 6493 c15 -2 37 -2 50 0 12 2 0 4 -28 4 -27 0 -38 -2 -22 -4z"/>
<path d="M3193 6493 c9 -2 23 -2 30 0 6 3 -1 5 -18 5 -16 0 -22 -2 -12 -5z"/>
<path d="M2168 6473 c29 -2 74 -2 100 0 26 2 2 3 -53 3 -55 0 -76 -1 -47 -3z"/>
<path d="M3173 6463 c9 -2 23 -2 30 0 6 3 -1 5 -18 5 -16 0 -22 -2 -12 -5z"/>
<path d="M10082 6421 c-16 -53 -16 -53 20 -49 28 3 34 8 44 46 l13 42 -33 0
c-29 0 -34 -4 -44 -39z"/>
<path d="M1948 6443 c29 -2 74 -2 100 0 26 2 2 3 -53 3 -55 0 -76 -1 -47 -3z"/>
<path d="M3170 6444 c58 -8 150 -8 150 -1 0 4 -39 6 -87 6 -49 -1 -77 -3 -63
-5z"/>
<path d="M1988 6423 c57 -2 147 -2 200 0 53 1 7 3 -103 3 -110 0 -154 -2 -97
-3z"/>
<path d="M3180 6410 c37 -12 140 -12 140 0 0 6 -34 10 -82 9 -57 -1 -75 -4
-58 -9z"/>
<path d="M1893 6393 c15 -2 37 -2 50 0 12 2 0 4 -28 4 -27 0 -38 -2 -22 -4z"/>
<path d="M3133 6393 c9 -2 23 -2 30 0 6 3 -1 5 -18 5 -16 0 -22 -2 -12 -5z"/>
<path d="M3113 6373 c9 -2 23 -2 30 0 6 3 -1 5 -18 5 -16 0 -22 -2 -12 -5z"/>
<path d="M4145 6358 c-13 -40 -85 -292 -85 -299 0 -5 11 -9 25 -9 31 0 31 -4
-4 -120 l-29 -95 25 -3 c33 -5 46 15 73 112 13 45 25 86 27 93 3 7 -8 13 -25
15 l-30 3 44 149 c24 83 44 154 44 158 0 13 -60 9 -65 -4z"/>
<path d="M3090 6350 c0 -5 11 -10 25 -10 14 0 25 5 25 10 0 6 -11 10 -25 10
-14 0 -25 -4 -25 -10z"/>
<path d="M10078 6353 c12 -2 30 -2 40 0 9 3 -1 5 -23 4 -22 0 -30 -2 -17 -4z"/>
<path d="M10050 6320 c0 -5 16 -10 35 -10 19 0 35 5 35 10 0 6 -16 10 -35 10
-19 0 -35 -4 -35 -10z"/>
<path d="M3051 6286 c-26 -42 -26 -46 2 -46 15 0 29 12 45 40 l23 40 -25 0
c-17 0 -31 -10 -45 -34z"/>
<path d="M7500 6310 c0 -5 16 -10 35 -10 19 0 35 5 35 10 0 6 -16 10 -35 10
-19 0 -35 -4 -35 -10z"/>
<path d="M3193 6303 c26 -2 68 -2 95 0 26 2 4 3 -48 3 -52 0 -74 -1 -47 -3z"/>
<path d="M10040 6290 c0 -5 16 -10 35 -10 19 0 35 5 35 10 0 6 -16 10 -35 10
-19 0 -35 -4 -35 -10z"/>
<path d="M7490 6280 c0 -5 16 -10 35 -10 19 0 35 5 35 10 0 6 -16 10 -35 10
-19 0 -35 -4 -35 -10z"/>
<path d="M7893 6283 c43 -2 110 -2 150 0 40 1 5 3 -78 3 -82 0 -115 -2 -72 -3z"/>
<path d="M3193 6263 c26 -2 67 -2 90 0 23 2 2 3 -48 3 -49 0 -68 -1 -42 -3z"/>
<path d="M8033 6263 c15 -2 37 -2 50 0 12 2 0 4 -28 4 -27 0 -38 -2 -22 -4z"/>
<path d="M10030 6250 c0 -5 16 -10 35 -10 19 0 35 5 35 10 0 6 -16 10 -35 10
-19 0 -35 -4 -35 -10z"/>
<path d="M7480 6240 c0 -5 16 -10 35 -10 19 0 35 5 35 10 0 6 -16 10 -35 10
-19 0 -35 -4 -35 -10z"/>
<path d="M8023 6243 c15 -2 37 -2 50 0 12 2 0 4 -28 4 -27 0 -38 -2 -22 -4z"/>
<path d="M7913 6233 c15 -2 37 -2 50 0 12 2 0 4 -28 4 -27 0 -38 -2 -22 -4z"/>
<path d="M9999 6140 l-27 -90 30 0 c27 0 29 -3 24 -24 -3 -13 -9 -31 -12 -40
-5 -13 1 -16 29 -16 32 0 35 3 45 40 10 40 10 40 -19 40 -16 0 -29 1 -29 3 0
2 11 41 25 87 14 46 25 85 25 87 0 2 -15 3 -32 3 -33 0 -33 -1 -59 -90z"/>
<path d="M3007 6213 c-14 -13 -6 -23 17 -23 13 0 26 7 30 15 4 11 -1 15 -18
15 -12 0 -26 -3 -29 -7z"/>
<path d="M7470 6213 c0 -7 506 -6 575 1 17 1 -106 4 -272 4 -167 1 -303 -1
-303 -5z"/>
<path d="M8925 6210 c-3 -6 5 -10 19 -10 14 0 28 5 31 10 3 6 -5 10 -19 10
-14 0 -28 -4 -31 -10z"/>
<path d="M3163 6193 c9 -2 23 -2 30 0 6 3 -1 5 -18 5 -16 0 -22 -2 -12 -5z"/>
<path d="M7843 6193 c43 -2 110 -2 150 0 40 1 5 3 -78 3 -82 0 -115 -2 -72 -3z"/>
<path d="M8874 6128 c-20 -35 -39 -66 -41 -70 -2 -5 7 -8 20 -8 19 0 32 11 53
48 15 26 34 57 42 70 13 21 13 22 -11 22 -21 0 -33 -12 -63 -62z"/>
<path d="M2955 6128 c-16 -29 -31 -56 -33 -60 -2 -5 29 -7 70 -6 68 1 70 2 23
7 -31 4 -45 9 -37 14 6 5 12 19 12 32 0 14 7 25 18 28 16 4 16 5 0 6 -26 2
-22 19 5 24 21 4 21 4 -3 6 -20 1 -31 -9 -55 -51z"/>
<path d="M7457 6160 c-4 -17 0 -20 28 -20 21 0 35 6 39 16 9 24 9 24 -28 24
-25 0 -35 -5 -39 -20z"/>
<path d="M6613 6163 c9 -2 25 -2 35 0 9 3 1 5 -18 5 -19 0 -27 -2 -17 -5z"/>
<path d="M4790 6130 c99 -12 200 -11 200 0 0 6 -50 9 -132 8 -114 -1 -124 -2
-68 -8z"/>
<path d="M6528 6133 c23 -2 61 -2 85 0 23 2 4 4 -43 4 -47 0 -66 -2 -42 -4z"/>
<path d="M7447 6123 c-3 -5 -8 -23 -12 -40 -6 -31 -5 -33 19 -33 14 0 26 -5
26 -11 0 -8 -200 -709 -246 -861 -4 -15 1 -18 28 -18 l33 0 124 433 c69 237
127 438 129 445 3 8 -6 12 -26 12 -30 0 -30 1 -21 32 5 18 9 36 9 40 0 10 -57
10 -63 1z"/>
<path d="M4933 6103 c9 -2 25 -2 35 0 9 3 1 5 -18 5 -19 0 -27 -2 -17 -5z"/>
<path d="M2966 6042 c-3 -5 12 -12 36 -16 39 -6 58 -2 46 9 -11 11 -76 17 -82
7z"/>
<path d="M8797 5904 c-48 -81 -86 -149 -83 -151 2 -2 103 3 224 13 206 16 221
19 226 38 3 11 4 22 2 24 -2 1 -86 -4 -186 -13 -100 -9 -184 -14 -186 -12 -2
1 26 52 63 112 81 136 81 135 52 135 -20 0 -38 -24 -112 -146z"/>
<path d="M4790 6030 c0 -5 7 -10 15 -10 8 0 15 5 15 10 0 6 -7 10 -15 10 -8 0
-15 -4 -15 -10z"/>
<path d="M2963 6013 c9 -2 23 -2 30 0 6 3 -1 5 -18 5 -16 0 -22 -2 -12 -5z"/>
<path d="M5810 6000 c0 -5 16 -10 35 -10 19 0 35 5 35 10 0 6 -16 10 -35 10
-19 0 -35 -4 -35 -10z"/>
<path d="M2953 5993 c9 -2 23 -2 30 0 6 3 -1 5 -18 5 -16 0 -22 -2 -12 -5z"/>
<path d="M5680 5533 c-68 -247 -126 -454 -128 -460 -3 -9 7 -13 29 -13 l34 0
124 448 c69 246 126 453 129 460 3 8 -7 12 -30 12 l-34 0 -124 -447z"/>
<path d="M2982 5963 c37 -2 100 -2 140 0 40 1 10 3 -67 3 -77 0 -110 -1 -73
-3z"/>
<path d="M4391 5925 c-184 -21 -210 -28 -211 -57 0 -11 -5 -11 197 12 98 11
183 18 190 16 10 -4 9 -15 -2 -53 -20 -64 -20 -63 23 -62 l37 2 -35 7 -35 7
32 2 c30 1 33 5 48 53 10 36 12 54 4 59 -7 4 -4 9 8 14 17 7 17 8 -2 15 -27
11 -30 11 -254 -15z"/>
<path d="M10018 5943 c12 -2 30 -2 40 0 9 3 -1 5 -23 4 -22 0 -30 -2 -17 -4z"/>
<path d="M10193 5943 c59 -2 155 -2 215 0 59 1 10 3 -108 3 -118 0 -167 -2
-107 -3z"/>
<path d="M2977 5923 c18 -2 50 -2 70 0 21 2 7 4 -32 4 -38 0 -55 -2 -38 -4z"/>
<path d="M10225 5914 c-55 -8 -129 -17 -165 -20 -120 -11 -88 -24 56 -22 90 1
122 3 89 7 -33 5 19 9 158 15 114 5 207 12 207 16 0 8 -131 21 -199 19 -25 -1
-91 -8 -146 -15z"/>
<path d="M2903 5913 c9 -2 23 -2 30 0 6 3 -1 5 -18 5 -16 0 -22 -2 -12 -5z"/>
<path d="M2893 5893 c9 -2 23 -2 30 0 6 3 -1 5 -18 5 -16 0 -22 -2 -12 -5z"/>
<path d="M4783 5873 c37 -2 97 -2 135 0 37 2 6 3 -68 3 -74 0 -105 -1 -67 -3z"/>
<path d="M10455 5743 c-21 -76 -55 -196 -75 -268 l-37 -130 29 -3 c17 -2 32
-1 34 1 3 3 36 114 73 248 37 134 71 254 75 267 7 20 4 22 -27 22 l-34 0 -38
-137z"/>
<path d="M2885 5860 c31 -8 182 -13 174 -6 -2 2 -49 5 -104 8 -55 3 -86 2 -70
-2z"/>
<path d="M4685 5855 c24 -8 285 -12 285 -4 0 5 -66 9 -147 8 -82 0 -143 -2
-138 -4z"/>
<path d="M2853 5833 c9 -2 23 -2 30 0 6 3 -1 5 -18 5 -16 0 -22 -2 -12 -5z"/>
<path d="M2825 5810 c-4 -6 6 -10 22 -10 22 0 25 2 13 10 -19 12 -27 12 -35 0z"/>
<path d="M4790 5810 l-115 -6 143 -2 c89 -1 142 2 142 8 0 6 -12 9 -27 8 -16
-1 -80 -5 -143 -8z"/>
<path d="M2998 5803 c34 -2 88 -2 120 0 31 2 3 3 -63 3 -66 0 -92 -1 -57 -3z"/>
<path d="M2912 5783 c59 -2 158 -2 220 0 62 1 14 3 -107 3 -121 0 -172 -2
-113 -3z"/>
<path d="M2795 5759 c-5 -7 25 -8 101 -3 60 3 111 8 113 10 2 2 -43 4 -102 4
-65 0 -108 -4 -112 -11z"/>
<path d="M4540 5760 c0 -5 16 -10 35 -10 19 0 35 5 35 10 0 6 -16 10 -35 10
-19 0 -35 -4 -35 -10z"/>
<path d="M7673 5743 c9 -2 25 -2 35 0 9 3 1 5 -18 5 -19 0 -27 -2 -17 -5z"/>
<path d="M4553 5733 c9 -2 25 -2 35 0 9 3 1 5 -18 5 -19 0 -27 -2 -17 -5z"/>
<path d="M4693 5733 c9 -2 25 -2 35 0 9 3 1 5 -18 5 -19 0 -27 -2 -17 -5z"/>
<path d="M4530 5710 c0 -5 14 -10 30 -10 17 0 30 5 30 10 0 6 -13 10 -30 10
-16 0 -30 -4 -30 -10z"/>
<path d="M4743 5703 c37 -2 96 -2 130 0 34 2 4 3 -68 3 -71 0 -99 -1 -62 -3z"/>
<path d="M4496 5597 c-14 -51 -26 -96 -26 -101 0 -4 14 -6 32 -4 28 3 34 8 44
46 12 40 12 42 -9 43 -21 1 -21 1 2 8 34 9 39 31 7 31 -38 0 -32 20 7 21 l32
2 -35 7 -35 7 31 2 c46 2 55 31 10 31 l-33 0 -27 -93z"/>
<path d="M4688 5663 c6 -2 18 -2 25 0 6 3 1 5 -13 5 -14 0 -19 -2 -12 -5z"/>
<path d="M0 5415 l0 -75 1065 0 1065 0 0 75 0 75 -1065 0 -1065 0 0 -75z"/>
<path d="M7830 5450 c0 -5 9 -10 21 -10 11 0 17 5 14 10 -3 6 -13 10 -21 10
-8 0 -14 -4 -14 -10z"/>
<path d="M6363 5413 c26 -2 68 -2 95 0 26 2 4 3 -48 3 -52 0 -74 -1 -47 -3z"/>
<path d="M7848 5403 c12 -2 30 -2 40 0 9 3 -1 5 -23 4 -22 0 -30 -2 -17 -4z"/>
<path d="M4416 5308 c-10 -40 -21 -79 -23 -85 -4 -9 6 -13 29 -13 33 0 34 1
52 68 10 37 21 75 23 85 4 14 -1 17 -29 17 -33 0 -34 0 -52 -72z"/>
<path d="M6438 5343 c12 -2 30 -2 40 0 9 3 -1 5 -23 4 -22 0 -30 -2 -17 -4z"/>
<path d="M1813 5313 c26 -2 68 -2 95 0 26 2 4 3 -48 3 -52 0 -74 -1 -47 -3z"/>
<path d="M10310 5220 c0 -5 13 -10 29 -10 17 0 33 5 36 10 4 6 -8 10 -29 10
-20 0 -36 -4 -36 -10z"/>
<path d="M3847 5123 c-3 -5 -12 -35 -22 -68 -49 -176 -43 -164 -78 -167 -27
-3 -33 -8 -43 -43 -8 -31 -16 -41 -35 -44 -47 -6 -54 -51 -9 -51 23 0 33 6 40
25 6 17 17 25 33 25 20 0 27 8 37 45 12 41 15 45 44 45 34 0 29 -11 94 223 3
13 -2 17 -26 17 -17 0 -33 -3 -35 -7z"/>
<path d="M9730 5010 l-33 -120 -32 0 c-27 0 -34 -4 -37 -25 -4 -21 -1 -25 18
-25 13 0 24 -4 24 -10 0 -5 -13 -10 -30 -10 -16 0 -30 -4 -30 -10 0 -5 15 -10
33 -10 30 0 34 3 45 44 10 40 15 45 43 48 32 3 32 4 65 118 18 63 34 116 34
118 0 1 -15 2 -33 2 l-34 0 -33 -120z"/>
<path d="M7178 4983 c-24 -85 -26 -88 -57 -91 -28 -3 -33 -8 -43 -48 -11 -39
-15 -44 -40 -44 -16 0 -28 -5 -28 -12 0 -7 -7 -26 -15 -41 l-14 -28 45 33 c25
18 48 36 50 40 3 5 16 8 29 8 19 0 26 9 37 43 13 36 19 42 45 45 22 2 33 9 37
25 3 12 14 52 25 90 l20 67 -33 0 c-33 0 -33 0 -58 -87z"/>
<path d="M4508 5053 c45 -2 119 -2 165 0 45 1 8 3 -83 3 -91 0 -128 -2 -82 -3z"/>
<path d="M6203 5053 c37 -2 97 -2 135 0 37 2 6 3 -68 3 -74 0 -105 -1 -67 -3z"/>
<path d="M5540 5031 c0 -5 -3 -17 -6 -25 -6 -15 34 -16 421 -14 l428 3 8 23 8
22 -429 0 c-255 0 -430 -4 -430 -9z"/>
<path d="M4693 5013 c9 -2 25 -2 35 0 9 3 1 5 -18 5 -19 0 -27 -2 -17 -5z"/>
<path d="M8883 5003 c9 -2 25 -2 35 0 9 3 1 5 -18 5 -19 0 -27 -2 -17 -5z"/>
<path d="M4683 4983 c9 -2 25 -2 35 0 9 3 1 5 -18 5 -19 0 -27 -2 -17 -5z"/>
<path d="M4523 4943 c37 -2 97 -2 135 0 37 2 6 3 -68 3 -74 0 -105 -1 -67 -3z"/>
<path d="M4383 4843 c9 -2 25 -2 35 0 9 3 1 5 -18 5 -19 0 -27 -2 -17 -5z"/>
<path d="M8623 4823 c37 -2 97 -2 135 0 37 2 6 3 -68 3 -74 0 -105 -1 -67 -3z"/>
<path d="M8525 4800 c-18 -5 21 -8 100 -8 72 0 144 4 160 8 18 5 -21 8 -100 8
-71 0 -143 -4 -160 -8z"/>
<path d="M9568 4773 c12 -2 30 -2 40 0 9 3 -1 5 -23 4 -22 0 -30 -2 -17 -4z"/>
<path d="M8553 4760 c37 -5 97 -5 135 0 58 6 48 7 -68 7 -116 0 -126 -1 -67
-7z"/>
<path d="M2708 4743 c23 -2 61 -2 85 0 23 2 4 4 -43 4 -47 0 -66 -2 -42 -4z"/>
<path d="M9540 4740 c0 -5 16 -10 35 -10 19 0 35 5 35 10 0 6 -16 10 -35 10
-19 0 -35 -4 -35 -10z"/>
<path d="M3620 4730 c0 -5 16 -10 35 -10 19 0 35 5 35 10 0 6 -16 10 -35 10
-19 0 -35 -4 -35 -10z"/>
<path d="M2623 4723 c37 -2 97 -2 135 0 37 2 6 3 -68 3 -74 0 -105 -1 -67 -3z"/>
<path d="M6949 4703 c-13 -16 -12 -17 4 -4 9 7 17 15 17 17 0 8 -8 3 -21 -13z"/>
<path d="M9530 4710 c0 -5 16 -10 35 -10 19 0 35 5 35 10 0 6 -16 10 -35 10
-19 0 -35 -4 -35 -10z"/>
<path d="M3610 4700 c0 -5 16 -10 35 -10 19 0 35 5 35 10 0 6 -16 10 -35 10
-19 0 -35 -4 -35 -10z"/>
<path d="M8458 4693 c50 -2 134 -2 185 0 50 1 9 3 -93 3 -102 0 -143 -2 -92
-3z"/>
<path d="M2400 4680 c-32 -4 41 -7 178 -8 149 -1 232 2 232 8 0 11 -319 11
-410 0z"/>
<path d="M9538 4673 c12 -2 30 -2 40 0 9 3 -1 5 -23 4 -22 0 -30 -2 -17 -4z"/>
<path d="M3600 4660 c0 -5 16 -10 35 -10 19 0 35 5 35 10 0 6 -16 10 -35 10
-19 0 -35 -4 -35 -10z"/>
<path d="M2603 4653 c37 -2 97 -2 135 0 37 2 6 3 -68 3 -74 0 -105 -1 -67 -3z"/>
<path d="M6849 4633 c-13 -16 -12 -17 4 -4 9 7 17 15 17 17 0 8 -8 3 -21 -13z"/>
<path d="M3590 4630 c0 -5 16 -10 35 -10 19 0 35 5 35 10 0 6 -16 10 -35 10
-19 0 -35 -4 -35 -10z"/>
<path d="M8313 4623 c37 -2 97 -2 135 0 37 2 6 3 -68 3 -74 0 -105 -1 -67 -3z"/>
<path d="M4398 4613 c23 -2 61 -2 85 0 23 2 4 4 -43 4 -47 0 -66 -2 -42 -4z"/>
<path d="M4302 4583 c37 -2 100 -2 140 0 40 1 10 3 -67 3 -77 0 -110 -1 -73
-3z"/>
<path d="M9497 4583 c-3 -5 -14 -42 -26 -83 -11 -41 -25 -90 -30 -107 -9 -32
-9 -33 23 -33 l33 0 31 109 c18 61 32 112 32 115 0 9 -58 7 -63 -1z"/>
<path d="M6749 4563 c-13 -16 -12 -17 4 -4 16 13 21 21 13 21 -2 0 -10 -8 -17
-17z"/>
<path d="M4453 4553 c9 -2 25 -2 35 0 9 3 1 5 -18 5 -19 0 -27 -2 -17 -5z"/>
<path d="M3538 4445 l-25 -85 33 0 c33 0 34 1 54 73 12 39 23 78 25 85 3 8 -7
12 -29 12 -32 0 -33 -1 -58 -85z"/>
<path d="M6649 4493 c-13 -16 -12 -17 4 -4 16 13 21 21 13 21 -2 0 -10 -8 -17
-17z"/>
<path d="M10230 3940 l0 -70 655 0 655 0 0 70 0 70 -655 0 -655 0 0 -70z"/>
<path d="M1270 3915 l0 -45 470 0 470 0 0 45 0 45 -470 0 -470 0 0 -45z"/>
<path d="M6960 3850 l0 -70 175 0 175 0 0 70 0 70 -175 0 -175 0 0 -70z"/>
<path d="M2666 2998 c-3 -13 -6 -26 -6 -30 0 -5 52 -8 115 -8 63 0 115 3 115
8 -2 28 -30 39 -121 46 -94 6 -97 6 -103 -16z"/>
<path d="M3307 2990 l-18 -30 24 0 c17 0 27 -7 31 -22 10 -39 7 -58 -10 -58
-8 0 -22 -7 -30 -15 -14 -13 -10 -15 30 -15 34 0 46 4 46 15 0 8 9 15 20 15
19 0 21 5 18 68 l-3 67 -45 3 c-41 3 -47 0 -63 -28z"/>
<path d="M3778 2994 c-6 -13 -9 -26 -7 -28 2 -2 56 -6 121 -9 113 -5 116 -5
122 16 12 47 12 47 -110 46 -112 -1 -115 -1 -126 -25z"/>
<path d="M4346 3003 c-16 -40 -10 -43 98 -43 99 0 104 1 110 23 3 12 6 25 6
29 0 4 -47 8 -104 7 -83 0 -106 -3 -110 -16z"/>
<path d="M5307 3013 c-20 -19 -5 -33 38 -33 46 0 54 7 33 28 -13 13 -60 16
-71 5z"/>
<path d="M5496 3004 c-11 -28 -6 -34 28 -34 25 0 35 5 39 19 6 25 0 31 -34 31
-15 0 -29 -7 -33 -16z"/>
<path d="M5884 3004 c-2 -8 -6 -21 -9 -29 -4 -13 10 -15 83 -16 48 0 81 -3 74
-6 -24 -10 0 -23 41 -22 l42 2 -35 7 -35 7 32 2 c41 1 48 14 27 46 -16 24 -20
25 -116 24 -76 0 -100 -4 -104 -15z"/>
<path d="M6412 2991 l-10 -28 107 -6 c58 -3 109 -2 113 1 4 4 10 19 13 35 l7
27 -110 0 -110 0 -10 -29z"/>
<path d="M7382 2990 l-10 -28 151 -7 c84 -4 188 -5 232 -3 55 3 32 5 -75 7
-99 2 -142 6 -120 11 l35 7 -32 2 c-44 1 -42 21 2 21 19 0 35 5 35 10 0 6 -41
10 -104 9 l-105 -1 -9 -28z"/>
<path d="M7720 3011 c0 -5 -12 -12 -27 -15 -16 -2 28 -3 96 0 68 2 173 4 233
4 70 0 107 4 103 10 -8 13 -405 14 -405 1z"/>
<path d="M9026 3005 c-4 -12 4 -15 39 -15 45 0 60 12 29 24 -28 11 -62 6 -68
-9z"/>
<path d="M9227 3013 c-15 -15 -5 -23 28 -23 24 0 35 5 35 15 0 15 -50 22 -63
8z"/>
<path d="M9606 2995 c-9 -34 -8 -35 48 -35 29 0 67 -7 82 -15 16 -8 44 -15 62
-15 27 0 32 4 32 23 0 46 -18 55 -122 59 -91 4 -97 3 -102 -17z"/>
<path d="M8476 3002 c-3 -5 -8 -23 -11 -42 -5 -27 -3 -31 10 -26 9 3 25 6 36
6 10 0 19 6 19 14 0 10 14 16 43 19 l42 4 -44 1 c-37 2 -42 4 -31 17 11 13 7
15 -23 15 -20 0 -38 -4 -41 -8z"/>
<path d="M8630 3000 c0 -5 16 -10 35 -10 19 0 35 5 35 10 0 6 -16 10 -35 10
-19 0 -35 -4 -35 -10z"/>
<path d="M7805 2980 l-110 -6 110 -1 c61 0 162 3 225 7 l115 7 -115 -1 c-63 0
-164 -3 -225 -6z"/>
<path d="M9021 2976 c10 -8 259 -14 259 -5 0 5 -56 9 -132 9 -72 0 -129 -2
-127 -4z"/>
<path d="M5043 2963 c37 -2 96 -2 130 0 34 2 4 3 -68 3 -71 0 -99 -1 -62 -3z"/>
<path d="M3193 2953 c9 -2 23 -2 30 0 6 3 -1 5 -18 5 -16 0 -22 -2 -12 -5z"/>
<path d="M5328 2953 c17 -2 47 -2 65 0 17 2 3 4 -33 4 -36 0 -50 -2 -32 -4z"/>
<path d="M5503 2953 c9 -2 25 -2 35 0 9 3 1 5 -18 5 -19 0 -27 -2 -17 -5z"/>
<path d="M8638 2953 c12 -2 30 -2 40 0 9 3 -1 5 -23 4 -22 0 -30 -2 -17 -4z"/>
<path d="M9250 2953 c-19 -3 -39 -9 -45 -15 -7 -7 7 -9 45 -4 30 3 72 6 93 6
20 0 37 5 37 10 0 10 -59 11 -130 3z"/>
<path d="M2830 2940 c0 -5 15 -10 33 -10 24 0 28 3 17 10 -20 13 -50 13 -50 0z"/>
<path d="M9030 2940 c0 -5 22 -7 53 -3 71 8 72 13 4 13 -31 0 -57 -4 -57 -10z"/>
<path d="M9493 2943 c9 -2 23 -2 30 0 6 3 -1 5 -18 5 -16 0 -22 -2 -12 -5z"/>
<path d="M5318 2933 c7 -3 16 -2 19 1 4 3 -2 6 -13 5 -11 0 -14 -3 -6 -6z"/>
<path d="M5493 2933 c9 -2 25 -2 35 0 9 3 1 5 -18 5 -19 0 -27 -2 -17 -5z"/>
<path d="M5660 2930 c0 -5 13 -10 29 -10 17 0 33 5 36 10 4 6 -8 10 -29 10
-20 0 -36 -4 -36 -10z"/>
<path d="M8065 2925 c-3 -8 -7 -22 -10 -30 -2 -8 -13 -15 -23 -15 -13 0 -23
-14 -35 -53 -21 -65 -21 -67 -2 -67 10 0 15 -10 15 -30 0 -16 5 -30 10 -30 6
0 10 4 10 8 0 5 11 14 25 20 30 14 32 29 6 34 -18 3 -18 5 -2 58 13 42 22 56
38 58 13 2 25 14 32 33 10 28 9 29 -25 29 -22 0 -36 -5 -39 -15z"/>
<path d="M9750 2913 c0 -8 13 -13 35 -13 19 0 35 4 35 9 0 5 -16 11 -35 13
-24 3 -35 0 -35 -9z"/>
<path d="M2807 2901 c-2 -11 -15 -22 -28 -25 -13 -3 0 -3 30 -1 49 4 70 15 71
38 0 4 -15 7 -34 7 -25 0 -35 -5 -39 -19z"/>
<path d="M4968 2913 c29 -2 74 -2 100 0 26 2 2 3 -53 3 -55 0 -76 -1 -47 -3z"/>
<path d="M6153 2913 c15 -2 39 -2 55 0 15 2 2 4 -28 4 -30 0 -43 -2 -27 -4z"/>
<path d="M9189 2890 c-7 -19 -18 -30 -29 -30 -31 0 -33 -18 -3 -23 l28 -4 -27
-2 c-20 -1 -29 -9 -37 -32 -14 -41 -14 -39 9 -39 17 0 18 -3 10 -26 -14 -35
-14 -34 25 -34 24 0 35 5 35 14 0 8 3 21 6 30 4 11 0 16 -14 16 l-21 0 21 60
c14 44 25 60 38 60 10 0 20 7 23 15 4 9 26 15 69 18 51 2 45 4 -30 5 l-93 2
-10 -30z"/>
<path d="M6048 2903 c12 -2 30 -2 40 0 9 3 -1 5 -23 4 -22 0 -30 -2 -17 -4z"/>
<path d="M6493 2903 c9 -2 23 -2 30 0 6 3 -1 5 -18 5 -16 0 -22 -2 -12 -5z"/>
<path d="M7378 2903 c6 -2 18 -2 25 0 6 3 1 5 -13 5 -14 0 -19 -2 -12 -5z"/>
<path d="M3888 2893 c18 -2 45 -2 60 0 15 2 0 4 -33 4 -33 0 -45 -2 -27 -4z"/>
<path d="M4390 2890 c0 -5 -27 -12 -60 -16 -69 -8 -81 -24 -17 -24 23 0 65 -3
93 -6 46 -6 52 -4 57 15 3 13 13 21 26 21 12 0 21 5 21 10 0 6 -27 10 -60 10
-33 0 -60 -4 -60 -10z"/>
<path d="M7480 2890 c0 -5 16 -10 36 -10 21 0 33 4 29 10 -3 6 -19 10 -36 10
-16 0 -29 -4 -29 -10z"/>
<path d="M3493 2883 c20 -2 54 -2 75 0 20 2 3 4 -38 4 -41 0 -58 -2 -37 -4z"/>
<path d="M5443 2883 c-34 -6 -32 -53 1 -53 19 0 23 4 19 19 -4 15 3 21 34 29
l38 10 -35 0 c-19 -1 -45 -3 -57 -5z"/>
<path d="M5633 2883 c15 -2 39 -2 55 0 15 2 2 4 -28 4 -30 0 -43 -2 -27 -4z"/>
<path d="M9723 2882 c-12 -2 -24 -13 -27 -27 -3 -13 -9 -30 -12 -39 -5 -13 1
-16 29 -16 32 0 35 3 45 39 10 43 5 50 -35 43z"/>
<path d="M2595 2870 c-4 -6 11 -7 42 -3 63 8 67 13 10 13 -25 0 -49 -4 -52
-10z"/>
<path d="M3221 2864 c0 -11 3 -14 6 -6 3 7 2 16 -1 19 -3 4 -6 -2 -5 -13z"/>
<path d="M3758 2873 c-33 -2 -58 -9 -58 -15 0 -7 17 -8 53 -3 28 4 84 11 122
15 l70 7 -65 -1 c-36 0 -91 -1 -122 -3z"/>
<path d="M5980 2865 c0 -9 9 -15 25 -15 37 0 31 -18 -7 -23 l-33 -4 33 -1 c26
-2 34 3 42 24 14 35 14 34 -25 34 -24 0 -35 -5 -35 -15z"/>
<path d="M6098 2873 c17 -2 47 -2 65 0 17 2 3 4 -33 4 -36 0 -50 -2 -32 -4z"/>
<path d="M8573 2873 c9 -2 25 -2 35 0 9 3 1 5 -18 5 -19 0 -27 -2 -17 -5z"/>
<path d="M3513 2863 c9 -2 25 -2 35 0 9 3 1 5 -18 5 -19 0 -27 -2 -17 -5z"/>
<path d="M4005 2860 c-59 -7 -59 -7 27 -8 49 -1 90 2 93 8 7 11 -22 11 -120 0z"/>
<path d="M7310 2860 c0 -12 157 -12 215 -1 30 7 8 9 -87 10 -80 1 -128 -3
-128 -9z"/>
<path d="M2755 2850 c-8 -13 35 -13 55 0 11 7 7 10 -17 10 -17 0 -35 -4 -38
-10z"/>
<path d="M7838 2853 c7 -3 16 -2 19 1 4 3 -2 6 -13 5 -11 0 -14 -3 -6 -6z"/>
<path d="M8428 2853 c6 -2 18 -2 25 0 6 3 1 5 -13 5 -14 0 -19 -2 -12 -5z"/>
<path d="M8568 2853 c12 -2 30 -2 40 0 9 3 -1 5 -23 4 -22 0 -30 -2 -17 -4z"/>
<path d="M2613 2843 c15 -2 37 -2 50 0 12 2 0 4 -28 4 -27 0 -38 -2 -22 -4z"/>
<path d="M9568 2843 c7 -3 16 -2 19 1 4 3 -2 6 -13 5 -11 0 -14 -3 -6 -6z"/>
<path d="M5813 2833 c9 -2 25 -2 35 0 9 3 1 5 -18 5 -19 0 -27 -2 -17 -5z"/>
<path d="M7443 2833 c9 -2 25 -2 35 0 9 3 1 5 -18 5 -19 0 -27 -2 -17 -5z"/>
<path d="M7820 2814 c-6 -14 -10 -32 -10 -40 0 -28 23 -9 36 29 11 32 11 37
-2 37 -8 0 -19 -12 -24 -26z"/>
<path d="M8378 2805 c-6 -29 7 -34 15 -6 3 12 16 21 33 24 26 3 25 4 -7 6 -32
1 -37 -2 -41 -24z"/>
<path d="M8540 2821 c0 -5 -3 -17 -6 -26 -6 -14 -1 -16 27 -13 26 2 34 8 34
23 0 14 -8 21 -27 23 -16 2 -28 -1 -28 -7z"/>
<path d="M8952 2800 c14 -43 18 -49 18 -24 0 11 -7 29 -15 40 -13 17 -14 16
-3 -16z"/>
<path d="M5433 2813 c9 -2 23 -2 30 0 6 3 -1 5 -18 5 -16 0 -22 -2 -12 -5z"/>
<path d="M6390 2794 c-13 -34 -13 -34 9 -34 17 0 18 -4 11 -30 -8 -29 -8 -30
25 -30 25 0 34 5 39 23 9 33 8 37 -10 37 -13 0 -15 7 -10 30 5 28 3 30 -24 30
-23 0 -33 -6 -40 -26z"/>
<path d="M9563 2803 c9 -2 25 -2 35 0 9 3 1 5 -18 5 -19 0 -27 -2 -17 -5z"/>
<path d="M3307 2793 c-14 -13 -6 -33 13 -33 13 0 20 -7 20 -20 0 -16 7 -20 35
-20 27 0 35 4 35 19 0 13 -11 21 -42 28 -42 10 -42 10 -18 21 l25 11 -31 0
c-17 1 -34 -2 -37 -6z"/>
<path d="M5230 2791 c0 -5 5 -13 10 -16 6 -3 10 -2 10 4 0 5 -4 13 -10 16 -5
3 -10 2 -10 -4z"/>
<path d="M5397 2793 c-13 -12 -7 -33 9 -33 12 0 14 -7 9 -30 -6 -28 -5 -30 23
-30 24 0 32 6 41 30 9 27 8 30 -11 30 -13 0 -18 5 -15 14 8 20 -39 36 -56 19z"/>
<path d="M5780 2775 c0 -8 7 -15 15 -15 8 0 15 7 15 15 0 8 -7 15 -15 15 -8 0
-15 -7 -15 -15z"/>
<path d="M5957 2783 c-13 -12 -7 -23 13 -23 17 0 18 -3 10 -26 -13 -33 -13
-34 5 -34 8 0 15 4 15 8 0 5 11 14 25 20 30 14 33 32 5 32 -13 0 -18 5 -14 15
5 11 -1 15 -23 15 -16 0 -33 -3 -36 -7z"/>
<path d="M4300 2768 c0 -3 8 -9 18 -11 9 -3 2 -5 -15 -6 -22 -1 -33 -6 -33
-16 0 -12 14 -15 70 -15 40 0 70 -4 70 -10 0 -5 13 -10 29 -10 23 0 31 6 40
30 9 27 8 30 -10 30 -10 0 -19 4 -19 8 0 5 -34 8 -75 8 -41 -1 -75 -4 -75 -8z"/>
<path d="M9500 2770 c0 -6 7 -10 15 -10 8 0 15 2 15 4 0 2 -7 6 -15 10 -8 3
-15 1 -15 -4z"/>
<path d="M9670 2770 c0 -5 16 -10 35 -10 19 0 35 5 35 10 0 6 -16 10 -35 10
-19 0 -35 -4 -35 -10z"/>
<path d="M8583 2763 c37 -2 96 -2 130 0 34 2 4 3 -68 3 -71 0 -99 -1 -62 -3z"/>
<path d="M3718 2753 c7 -3 16 -2 19 1 4 3 -2 6 -13 5 -11 0 -14 -3 -6 -6z"/>
<path d="M3898 2753 c6 -2 18 -2 25 0 6 3 1 5 -13 5 -14 0 -19 -2 -12 -5z"/>
<path d="M5813 2745 c-3 -9 -3 -18 0 -21 9 -9 27 6 27 22 0 19 -19 18 -27 -1z"/>
<path d="M7345 2752 c-50 -6 -65 -52 -17 -52 21 0 32 7 41 26 14 31 14 30 -24
26z"/>
<path d="M8397 2740 c-3 -11 -2 -20 3 -20 4 0 10 9 13 20 3 11 2 20 -3 20 -4
0 -10 -9 -13 -20z"/>
<path d="M9536 2745 c-3 -9 0 -15 9 -15 8 0 15 7 15 15 0 8 -4 15 -9 15 -5 0
-11 -7 -15 -15z"/>
<path d="M2625 2743 c-28 -4 -44 -18 -45 -35 0 -5 15 -8 34 -8 28 0 34 4 38
25 3 14 5 24 4 24 0 -1 -14 -4 -31 -6z"/>
<path d="M8551 2728 c-9 -23 5 -39 18 -21 3 5 17 17 31 26 l24 17 -32 0 c-25
0 -35 -6 -41 -22z"/>
<path d="M9718 2743 c12 -2 30 -2 40 0 9 3 -1 5 -23 4 -22 0 -30 -2 -17 -4z"/>
<path d="M9708 2723 c6 -2 18 -2 25 0 6 3 1 5 -13 5 -14 0 -19 -2 -12 -5z"/>
<path d="M3155 2710 c-3 -5 1 -10 9 -10 9 0 16 5 16 10 0 6 -4 10 -9 10 -6 0
-13 -4 -16 -10z"/>
<path d="M3363 2703 c9 -2 25 -2 35 0 9 3 1 5 -18 5 -19 0 -27 -2 -17 -5z"/>
<path d="M3878 2703 c7 -3 16 -2 19 1 4 3 -2 6 -13 5 -11 0 -14 -3 -6 -6z"/>
<path d="M520 1825 l0 -85 1400 0 1400 0 0 85 0 85 -1400 0 -1400 0 0 -85z"/>
<path d="M4650 1595 l0 -55 2415 0 2415 0 0 55 0 55 -2415 0 -2415 0 0 -55z"/>
</g>
</svg>
